<svg width="108" height="108" viewBox="0 0 108 108" fill="none" xmlns="http://www.w3.org/2000/svg">
<g clip-path="url(#clip0_50_15243)">
<path d="M32.1772 63.9921C30.5087 63.929 29.1435 63.4944 28.0761 62.6871C27.8724 62.5329 27.3869 62.0705 27.2241 61.8754C26.7912 61.3573 26.4969 60.853 26.3007 60.2935C25.6967 58.5711 26.0075 56.3111 27.1898 53.8307C28.2021 51.7072 29.7641 49.6011 32.4892 46.6841C32.8906 46.2549 34.0861 44.9996 34.0938 44.9996C34.0966 44.9996 34.0315 45.1071 33.9495 45.2379C33.2409 46.3678 32.6346 47.6987 32.3044 48.8509C31.7738 50.6997 31.8378 52.2863 32.4918 53.5165C32.9429 54.3641 33.7164 55.0982 34.5861 55.5041C36.1086 56.2143 38.3378 56.273 41.0601 55.676C41.2475 55.6346 50.5349 53.2875 61.6989 50.4601C72.8629 47.6323 81.9986 45.3206 82 45.3225C82.0031 45.325 56.0629 55.8922 42.5969 61.3744C40.4644 62.2424 39.8941 62.4616 38.8915 62.7967C36.3286 63.6535 34.0329 64.0623 32.1772 63.9921Z" fill="white"/>
</g>
<path d="M54 1C83.2711 1 107 24.7289 107 54C107 83.2711 83.2711 107 54 107C24.7289 107 1 83.2711 1 54C1 41.5237 5.31094 30.0543 12.5245 21" stroke="white"/>
<defs>
<clipPath id="clip0_50_15243">
<rect width="56" height="19" fill="white" transform="translate(26 45)"/>
</clipPath>
</defs>
</svg>
